<?xml version="1.0" standalone="no"?>
<!DOCTYPE svg PUBLIC "-//W3C//DTD SVG 20010904//EN"
 "http://www.w3.org/TR/2001/REC-SVG-20010904/DTD/svg10.dtd">
<svg version="1.0" xmlns="http://www.w3.org/2000/svg"
 width="512.000000pt" height="512.000000pt" viewBox="0 0 512.000000 512.000000"
 preserveAspectRatio="xMidYMid meet">
<metadata>
Created by potrace 1.14, written by Peter Selinger 2001-2017
</metadata>
<g transform="translate(0.000000,512.000000) scale(0.100000,-0.100000)"
fill="#000000" stroke="none">
<path d="M2388 5018 c-95 -55 -294 -170 -443 -256 -148 -86 -340 -196 -425
-245 -255 -148 -511 -296 -764 -441 -321 -185 -300 -172 -280 -180 12 -5 424
-241 534 -306 35 -21 639 -369 680 -392 25 -14 137 -79 250 -145 113 -65 212
-122 220 -126 8 -4 31 -17 50 -28 137 -83 347 -202 355 -202 6 0 78 40 160 88
83 48 166 97 185 108 19 10 242 139 495 285 253 146 471 272 485 279 14 8 46
26 71 41 25 15 110 64 190 110 79 46 151 88 159 93 8 5 89 52 180 104 91 51
165 98 164 102 -1 4 -19 18 -40 30 -21 12 -52 29 -67 38 -15 9 -135 78 -265
154 -131 75 -244 140 -252 144 -8 4 -28 16 -45 26 -28 17 -987 571 -1030 595
-11 6 -27 16 -35 22 -8 6 -44 27 -80 46 -36 20 -100 57 -143 82 -43 25 -82 46
-87 46 -6 0 -10 4 -10 9 0 31 -51 11 -212 -81z"/>
<path d="M310 2427 l0 -1213 193 -111 c105 -61 376 -218 602 -348 226 -130
428 -247 450 -260 57 -32 147 -84 165 -95 8 -5 121 -70 250 -145 129 -74 246
-142 260 -150 179 -103 180 -104 180 -87 5 194 -1 2407 -7 2413 -4 4 -150 90
-323 190 -173 99 -389 224 -480 277 -91 52 -178 103 -195 112 -16 9 -219 126
-449 260 -231 133 -440 254 -465 268 -25 14 -62 35 -81 47 -19 12 -50 30 -67
39 l-33 17 0 -1214z"/>
<path d="M4485 3449 c-181 -105 -451 -261 -600 -347 -148 -85 -324 -187 -390
-225 -66 -38 -138 -80 -160 -92 -230 -131 -602 -348 -609 -355 -8 -8 -16
-2430 -8 -2430 2 0 38 20 80 45 42 25 84 50 92 55 23 13 438 252 484 279 22
13 172 99 331 191 160 92 448 259 640 370 193 111 378 218 413 238 l62 36 0
1213 c0 667 -1 1213 -2 1213 -2 0 -151 -86 -333 -191z"/>
</g>
</svg>
